# xmcd
#
# Track frame offsets:
#	150
#	10552
#	22178
#	34310
#	45086
#	60590
#	72436
#	82097
#	92217
#	100885
#	112993
#	124085
#
# Disc length: 1825 seconds
#
# Revision: 1
# Processed by: cddbd v1.5.2PL0 Copyright (c) Steve Scherf et al.
# Submitted via: audiograbber 1.83.01
#
DISCID=96071f0c
DTITLE=George Jones - King Of Broken Hearts
DYEAR=1965
DGENRE=Country
TTITLE0=She Once Lived Here
TTITLE1=Just Dont Like This Kind Of Living
TTITLE2=Faded Love
TTITLE3=Silver Dew On The Blue Grass
TTITLE4=Peace In The Valley
TTITLE5=I Can't Change Overnight
TTITLE6=What Am I Worth
TTITLE7=You're Gonna Change (or I'm Gonna Leave)
TTITLE8=Take Me Back To Tulsa
TTITLE9=The Same Sweet Girl
TTITLE10=Wandering Soul
TTITLE11=Seasons Of My Heart
EXTD=
EXTT0=
EXTT1=
EXTT2=
EXTT3=
EXTT4=
EXTT5=
EXTT6=
EXTT7=
EXTT8=
EXTT9=
EXTT10=
EXTT11=
PLAYORDER=
